<svg width="207" height="78" viewBox="0 0 207 78" fill="none" xmlns="http://www.w3.org/2000/svg">
<path d="M42.2161 51.088C42.2161 51.856 42.0121 52.468 41.6041 52.924C41.1961 53.38 40.6441 53.608 39.9481 53.608H23.3881C22.6921 53.608 22.1401 53.38 21.7321 52.924C21.3241 52.468 21.1201 51.856 21.1201 51.088V24.16C21.1201 23.392 21.3241 22.78 21.7321 22.324C22.1401 21.868 22.6921 21.64 23.3881 21.64H39.9481C40.6441 21.64 41.1961 21.868 41.6041 22.324C42.0121 22.78 42.2161 23.392 42.2161 24.16V27.832C42.2161 28.6 42.0121 29.188 41.6041 29.596C41.1961 29.98 40.6441 30.232 39.9481 30.352C38.5321 30.616 37.1281 30.736 35.7361 30.712C34.3441 30.688 32.9401 30.568 31.5241 30.352V33.34C34.3321 34.036 37.1401 34.036 39.9481 33.34C40.2841 33.268 40.5841 33.292 40.8481 33.412C41.1361 33.508 41.3761 33.676 41.5681 33.916C41.7841 34.156 41.9401 34.444 42.0361 34.78C42.1561 35.116 42.2161 35.476 42.2161 35.86V39.172C42.2161 39.94 42.0001 40.516 41.5681 40.9C41.1601 41.284 40.6201 41.548 39.9481 41.692C38.5081 42.028 37.0921 42.184 35.7001 42.16C34.3321 42.136 32.9401 41.98 31.5241 41.692V44.896C32.9401 45.232 34.3441 45.4 35.7361 45.4C37.1281 45.4 38.5321 45.232 39.9481 44.896C40.2841 44.824 40.5841 44.848 40.8481 44.968C41.1361 45.064 41.3761 45.232 41.5681 45.472C41.7841 45.712 41.9401 46 42.0361 46.336C42.1561 46.672 42.2161 47.032 42.2161 47.416V51.088ZM65.3702 37.732C65.3702 38.5 65.1542 39.112 64.7222 39.568C64.3142 40.024 63.7742 40.252 63.1022 40.252H58.6022C58.2662 40.252 57.9782 40.144 57.7382 39.928C57.5222 39.712 57.3062 39.46 57.0902 39.172C56.8982 38.884 56.6822 38.62 56.4422 38.38C56.2262 38.116 55.9502 37.948 55.6142 37.876C55.5422 37.852 55.4462 37.84 55.3262 37.84H54.4622C54.0302 37.84 53.7422 37.996 53.5982 38.308C53.4782 38.596 53.4182 39.016 53.4182 39.568V44.212C53.4182 44.764 53.4782 45.196 53.5982 45.508C53.7422 45.796 54.0302 45.94 54.4622 45.94H55.3262C55.3742 45.94 55.4222 45.94 55.4702 45.94C55.5422 45.916 55.6022 45.904 55.6502 45.904C55.9622 45.808 56.2262 45.628 56.4422 45.364C56.6822 45.076 56.8982 44.8 57.0902 44.536C57.3062 44.272 57.5222 44.032 57.7382 43.816C57.9782 43.6 58.2662 43.492 58.6022 43.492H63.1022C63.7742 43.492 64.3142 43.72 64.7222 44.176C65.1542 44.632 65.3702 45.244 65.3702 46.012V46.444C65.3702 48.988 64.7822 50.848 63.6062 52.024C62.4542 53.2 60.7622 53.788 58.5302 53.788H51.2582C49.0262 53.788 47.3222 53.2 46.1462 52.024C44.9942 50.848 44.4182 48.988 44.4182 46.444V37.336C44.4182 34.792 44.9942 32.932 46.1462 31.756C47.3222 30.58 49.0262 29.992 51.2582 29.992H58.5302C60.7622 29.992 62.4542 30.58 63.6062 31.756C64.7822 32.932 65.3702 34.792 65.3702 37.336V37.732ZM90.3712 51.088C90.3712 51.856 90.1552 52.468 89.7232 52.924C89.3152 53.38 88.7752 53.608 88.1032 53.608H83.0992C82.7632 53.608 82.4392 53.548 82.1272 53.428C81.8392 53.308 81.5872 53.128 81.3712 52.888C81.1552 52.672 80.9992 52.408 80.9032 52.096C80.8072 51.784 80.7832 51.448 80.8312 51.088C80.9032 50.68 80.9632 49.996 81.0112 49.036C81.0832 48.1 81.1312 47.056 81.1552 45.904C81.1792 44.728 81.1552 43.504 81.0832 42.232C81.0112 40.96 80.8792 39.796 80.6872 38.74H77.2312C77.3752 39.82 77.4712 41.008 77.5192 42.304C77.5672 43.6 77.5672 44.848 77.5192 46.048C77.4952 47.248 77.4472 48.304 77.3752 49.216C77.3032 50.152 77.2312 50.776 77.1592 51.088C76.9912 51.832 76.7392 52.432 76.4032 52.888C76.0672 53.368 75.5632 53.608 74.8912 53.608H69.8872C69.1912 53.608 68.6392 53.38 68.2312 52.924C67.8232 52.468 67.6192 51.856 67.6192 51.088V24.16C67.6192 23.392 67.8232 22.78 68.2312 22.324C68.6392 21.868 69.1912 21.64 69.8872 21.64H74.8192C75.4912 21.64 76.0312 21.868 76.4392 22.324C76.8712 22.78 77.0872 23.392 77.0872 24.16V31.468C77.4952 31.06 78.1312 30.712 78.9952 30.424C79.8832 30.136 80.8552 29.992 81.9112 29.992H83.8552C86.0872 29.992 87.7312 30.58 88.7872 31.756C89.8432 32.932 90.3712 34.792 90.3712 37.336V51.088ZM114.495 46.444C114.495 48.988 113.907 50.848 112.731 52.024C111.579 53.2 109.887 53.788 107.655 53.788H99.4113C97.1793 53.788 95.4753 53.2 94.2993 52.024C93.1473 50.848 92.5713 48.988 92.5713 46.444V37.336C92.5713 34.792 93.1473 32.932 94.2993 31.756C95.4753 30.58 97.1793 29.992 99.4113 29.992H107.655C109.887 29.992 111.579 30.58 112.731 31.756C113.907 32.932 114.495 34.792 114.495 37.336V46.444ZM104.847 45.832C105.111 44.608 105.243 43.3 105.243 41.908C105.243 40.516 105.111 39.208 104.847 37.984H101.823C102.015 39.208 102.111 40.516 102.111 41.908C102.135 43.3 102.039 44.608 101.823 45.832H104.847ZM126.225 51.088C126.225 51.856 126.009 52.468 125.577 52.924C125.169 53.38 124.629 53.608 123.957 53.608H119.025C118.329 53.608 117.777 53.38 117.369 52.924C116.961 52.468 116.757 51.856 116.757 51.088V32.62C116.757 31.852 116.961 31.24 117.369 30.784C117.777 30.328 118.329 30.1 119.025 30.1H123.921C124.329 30.1 124.701 30.22 125.037 30.46C125.397 30.676 125.673 30.988 125.865 31.396L125.901 31.468C126.189 31.156 126.609 30.892 127.161 30.676C127.737 30.436 128.373 30.256 129.069 30.136C129.717 30.016 130.257 30.184 130.689 30.64C131.121 31.096 131.337 31.72 131.337 32.512V37.66C131.337 38.38 131.133 38.98 130.725 39.46C130.317 39.94 129.765 40.24 129.069 40.36C127.173 40.72 126.225 41.608 126.225 43.024V51.088ZM155.562 51.088C155.562 51.856 155.346 52.468 154.914 52.924C154.506 53.38 153.966 53.608 153.294 53.608H149.334C148.998 53.608 148.626 53.56 148.218 53.464C147.834 53.392 147.438 53.308 147.03 53.212C146.646 53.14 146.262 53.08 145.878 53.032C145.494 53.008 145.146 53.056 144.834 53.176C144.354 53.344 143.838 53.476 143.286 53.572C142.758 53.668 142.194 53.716 141.594 53.716H139.65C137.394 53.716 135.738 53.128 134.682 51.952C133.65 50.776 133.134 48.916 133.134 46.372V32.62C133.134 31.852 133.338 31.24 133.746 30.784C134.154 30.328 134.706 30.1 135.402 30.1H140.478C141.15 30.1 141.666 30.34 142.026 30.82C142.41 31.3 142.65 31.9 142.746 32.62C142.842 33.412 142.926 34.336 142.998 35.392C143.07 36.424 143.094 37.516 143.07 38.668C143.07 39.796 143.01 40.936 142.89 42.088C142.77 43.24 142.578 44.32 142.314 45.328H145.374C145.662 44.344 145.866 43.288 145.986 42.16C146.13 41.032 146.202 39.904 146.202 38.776C146.226 37.648 146.202 36.556 146.13 35.5C146.082 34.444 145.998 33.484 145.878 32.62C145.782 31.9 145.962 31.3 146.418 30.82C146.874 30.34 147.45 30.1 148.146 30.1H153.294C153.966 30.1 154.506 30.328 154.914 30.784C155.346 31.24 155.562 31.852 155.562 32.62V51.088ZM157.805 47.92C157.805 47.152 158.009 46.54 158.417 46.084C158.825 45.628 159.377 45.4 160.073 45.4H165.437C165.677 45.4 165.893 45.472 166.085 45.616C166.277 45.76 166.457 45.928 166.625 46.12C166.817 46.288 167.009 46.444 167.201 46.588C167.393 46.732 167.609 46.816 167.849 46.84H168.965C169.301 46.84 169.529 46.768 169.649 46.624C169.793 46.456 169.865 46.264 169.865 46.048C169.865 45.712 169.781 45.508 169.613 45.436C169.469 45.34 169.265 45.232 169.001 45.112L160.757 42.484C159.893 42.124 159.185 41.56 158.633 40.792C158.081 40.024 157.805 39.028 157.805 37.804V35.644C157.805 33.772 158.273 32.368 159.209 31.432C160.145 30.472 161.429 29.992 163.061 29.992H173.753C175.385 29.992 176.669 30.472 177.605 31.432C178.541 32.368 179.009 33.772 179.009 35.644V36.112C179.009 36.88 178.805 37.492 178.397 37.948C177.989 38.404 177.437 38.632 176.741 38.632H171.629C171.365 38.632 171.125 38.548 170.909 38.38C170.693 38.212 170.477 38.02 170.261 37.804C170.069 37.588 169.865 37.396 169.649 37.228C169.433 37.06 169.193 36.976 168.929 36.976H167.849C167.513 36.976 167.285 37.06 167.165 37.228C167.045 37.396 166.985 37.6 166.985 37.84C166.985 38.176 167.069 38.404 167.237 38.524C167.429 38.62 167.681 38.728 167.993 38.848L176.021 41.152C177.005 41.512 177.737 42.1 178.217 42.916C178.721 43.732 178.973 44.596 178.973 45.508L179.009 48.136C179.009 50.008 178.541 51.412 177.605 52.348C176.669 53.308 175.385 53.788 173.753 53.788H163.061C161.429 53.788 160.145 53.308 159.209 52.348C158.273 51.412 157.805 50.008 157.805 48.136V47.92Z" fill="black"/>
</svg>
